<?xml version="1.0" encoding="UTF-8"?>
<svg id="Capa_1" data-name="Capa 1" xmlns="http://www.w3.org/2000/svg" version="1.1" viewBox="0 0 595.28 419.53">
  <defs>
    <style>
      .cls-1 {
        fill: #1d1d1b;
        stroke-width: 0px;
      }
    </style>
  </defs>
  <polygon class="cls-1" points="279.68 253.18 276 253.18 276 255.19 279.3 255.19 279.3 255.79 276 255.79 276 257.86 279.72 257.86 279.72 258.46 275.32 258.46 275.32 252.58 279.68 252.58 279.68 253.18"/>
  <path class="cls-1" d="M283.91,255.2c1.34.29,1.96.76,1.96,1.67,0,1.02-.86,1.68-2.06,1.68-.96,0-1.75-.31-2.48-.95l.43-.48c.63.55,1.23.82,2.06.82s1.35-.4,1.35-1c0-.56-.3-.87-1.57-1.13-1.39-.29-2.03-.73-2.03-1.71s.84-1.61,1.98-1.61c.88,0,1.52.24,2.13.72l-.4.52c-.55-.44-1.12-.65-1.75-.65-.78,0-1.28.42-1.28.96s.31.87,1.64,1.15"/>
  <polygon class="cls-1" points="290.07 258.47 289.38 258.47 289.38 253.2 287.35 253.2 287.35 252.58 292.1 252.58 292.1 253.2 290.07 253.2 290.07 258.47"/>
  <rect class="cls-1" x="292.97" y="257.59" width=".8" height=".88"/>
  <path class="cls-1" d="M299.33,254.1l-.5-.35c.55-.79,1.12-1.26,2.18-1.26s1.87.71,1.87,1.68c0,.86-.47,1.39-1.53,2.29l-1.62,1.4h3.21v.6h-4.22v-.52l2.19-1.88c.92-.81,1.26-1.26,1.26-1.85,0-.69-.56-1.12-1.22-1.12-.69,0-1.14.35-1.62,1.01"/>
  <path class="cls-1" d="M307.2,253.09c-1.12,0-1.84,1.12-1.84,2.42s.73,2.45,1.85,2.45,1.83-1.13,1.83-2.43-.71-2.44-1.85-2.44M307.2,258.57c-1.56,0-2.54-1.38-2.54-3.04s1-3.05,2.56-3.05,2.54,1.38,2.54,3.03-1,3.05-2.56,3.05"/>
  <polygon class="cls-1" points="312.61 252.54 311.13 253.03 311.3 253.57 312.43 253.23 312.43 258.47 313.11 258.47 313.11 252.54 312.61 252.54"/>
  <path class="cls-1" d="M318.35,253.48l-2.53,3.04h2.53v-3.04ZM319.02,252.54v3.98h.94v.55h-.94v1.4h-.66v-1.4h-3.18l-.18-.48,3.42-4.05h.6Z"/>
  <path class="cls-1" d="M226.59,219.05s-.43.44-1.21,1.28c-.83.86-1.89,1.72-3.18,2.58-.93.64-2.34,1.4-4.22,2.28-.23-.06-.61.03-1.13.27-.5.19-.88.23-1.12.13.02-.08-.02-.16-.08-.21-.07-.06-.1-.12-.08-.18.07-.18.2-.28.39-.3.49-.05.68-.06.57-.03,1.26-.23,2.93-1.07,5.03-2.52.14-.09.51-.31,1.1-.67.45-.27.8-.5,1.03-.7,3.36-3.04,5.6-6.41,6.72-10.11.39-1.11.58-1.65.56-1.64.3-3.18.28-5.44-.08-6.78.07-.09.11-.2.13-.33.02-.12.05-.23.1-.31.18-.03.33.05.44.23.1.2.2.3.29.32.18,3.47.08,5.96-.29,7.46-.08.38-.22.83-.44,1.37-.43,1.84-1.95,4.46-4.54,7.85M224.16,230.7c-.98,1.13-2.18,2.03-3.57,2.71-2.44.93-4.57,1.11-6.4.51-1.42-.46-2.38-.87-2.9-1.23-4.29-2.84-6.16-4.25-5.62-4.23.08,0-.99.39-3.17,1.17-.18-.34-.27-.55-.24-.65.21-.27.54-.39.96-.39.49-.51,1.16-.81,2.02-.89.81-.09,1.64,0,2.44.29.25.18.47.39.65.62.19.23.4.44.62.61.02.08.15.22.39.43.23.19.31.29.25.29,2.27,2.4,4.56,3.61,6.86,3.65,2.98-.37,5.12-1.28,6.43-2.71.22-.25.57-.45,1.05-.61-.18,0-.1.14.24.42M212.95,194.11c-.57-.23-1.27-.29-2.1-.16-3.41.55-5.97,1.88-7.72,3.97-1.27,1.55-2.08,3.04-2.44,4.45-.45,3.26-.62,4.77-.51,4.56.06.02-.12-.22-.51-.72-.05-2,.18-3.89.72-5.69.29-.94.96-2,2.02-3.16.9-.97,1.95-1.81,3.17-2.52.98-.55,2.34-1.01,4.07-1.36,1.71-.36,2.93-.47,3.62-.33.16.47.05.79-.33.96M218.41,194.51c-1.33-.93-3.26-1.54-5.78-1.85-.07-.02-.22-.04-.43-.08-.2-.05-.35-.08-.46-.08-1.65-.1-3.57.38-5.76,1.45-.14.08-.45.2-.94.4-.38.16-.65.29-.83.4-.05.03-.58.5-1.56,1.39-2.36,2.12-3.48,5.14-3.39,9.04.08,2.77.64,5.08,1.69,6.91.79,1.36,1.97,2.62,3.55,3.75,1.86,1.34,3.68,2.08,5.45,2.21,2.93.21,5.41-.29,7.45-1.53,1.51-.92,2.74-2.23,3.69-3.94.91-1.69,1.57-4.11,1.96-7.3.05-3.28-.34-5.63-1.18-7.01-.91-1.49-2.07-2.74-3.47-3.76M214.62,225.51c.91.77,1.45,1.22,1.61,1.34,1.37,1.03,2.65,1.44,3.88,1.23.55-.09,1.67-.47,3.34-1.13-.04.04.05-.18.27-.65.12-.26.33-.37.61-.32.23.03.39.23.46.56.05.26.06.47.03.65-.18.66-.71,1.45-1.61,2.36-1.28,1.28-2.58,2.18-3.9,2.74-1.58.68-3.62.68-6.11,0-.86-.23-1.72-.86-2.58-1.85.03.03-.44-.48-1.37-1.53-.82-.91-1.73-1.52-2.72-1.83-1.16-.34-2.27-.19-3.31.43-.13.09-.31.25-.56.49-.22.2-.4.34-.57.43,0,0-.2-.28-.73-.83.6-2.07,2.2-3.42,4.79-4.05-1.97-.78-3.46-1.48-4.46-2.08-.08-.06-.29-.17-.61-.33-.28-.14-.46-.26-.56-.35-.51-.39-.75-.57-.73-.54-5.4-3.96-7.98-9.17-7.74-15.62.08-2.72.62-5.18,1.61-7.38.82-1.85,2.18-3.79,4.06-5.79.29-.38.7-.73,1.23-1.07,1.38-1.22,3.41-2.32,6.08-3.3,2.01-.76,3.79-1.15,5.34-1.21,2.55-.1,4.87.18,6.97.89,3.55,1.13,6.23,2.8,8.05,4.98,1.7,2.06,2.94,4.13,3.71,6.22.66,1.41,1.07,4.09,1.23,8.05-.07,1.52-.36,3.15-.89,4.91-.7,2.28-2.64,5.29-5.83,9-3.68,3.05-7.2,4.54-10.57,4.46.41.21.94.59,1.59,1.12"/>
  <path class="cls-1" d="M265.2,187.31c.2.13.24.34.13.64l-.37.62c-.55.89-.79,1.29-.73,1.21-.61,1.57-.93,3.62-.96,6.13,0,.76.03,1.87.08,3.32.03,1.52.06,2.62.06,3.3,0,7.96-.49,13.11-1.46,15.43-.3.77-.7,1.5-1.21,2.2-2.29,3.31-5.37,5.29-9.22,5.92.16,0-.44.02-1.78.08-.07,0-.23.02-.49.05-.19.03-.35.05-.49.05-.37,0-.61-.13-.72-.42.17-.29.49-.44.96-.41.13,0,.34.02.65.04.29.04.5.06.65.06,3.33,0,6.24-1.47,8.73-4.41,1.36-1.62,2.36-3.52,2.99-5.68.54-1.81.76-5.25.65-10.32-.06-3.56-.11-5.8-.16-6.7-.23-5.3.6-9.01,2.53-11.11h.16ZM246.08,188.25c-.05.08-.14.23-.27.42-.13.16-.22.28-.27.36-.63,1.14-.95,1.75-.96,1.84-.13.37-.26,1.86-.41,4.48-.1,1.83-.15,5.03-.15,9.62,0,5.29.39,8.81,1.21,10.56.37.81.56,1.23.56,1.26-.58.04-1.12-.64-1.62-2.05-.7-1.94-1-4.64-.91-8.1,0-.37.06-1.85.18-4.46.07-1.81.1-3.31.08-4.47-.02-.24-.06-.7-.11-1.39-.06-.58-.08-1.06-.06-1.43.09-2.97.85-5.44,2.27-7.42.07.02.16,0,.27-.05.08-.03.18-.04.29-.03.13.24.09.53-.11.86M243.85,189.14c-.16.61-.45,1.22-.89,1.8-.25,1.76-.33,4.19-.24,7.26.09,3.53.09,5.97,0,7.31-.1,1.54-.16,2.32-.16,2.36-.03,2.86.15,4.97.57,6.31.3,1.02.77,1.91,1.42,2.7.7.86,1.47,1.37,2.29,1.54,2.1.49,3.93-.13,5.49-1.89.05-.39.23-.92.54-1.57.34-.71.55-1.24.62-1.57.03-.21.04-.47.03-.79-.04-.44-.04-.7-.03-.79,0-.18.03-.46.1-.81.08-.34.13-.6.13-.76.04-1.1.03-2.63-.02-4.61-.09-2.79-.14-4.46-.14-4.99-.02-.58,0-1.46.03-2.65.04-1.24.06-2.15.06-2.73-.02-3.26-.35-5.5-1-6.7-.08-.17-.29-.42-.6-.76-.26-.29-.44-.55-.53-.74.34-.18,1.34-.27,3-.23.56.03,1.59.03,3.1.03,1.34.02,2.41.03,3.21.05,2.01.07,3.06.13,3.17.15-.08.21-.22.47-.43.76-.27.39-.46.65-.57.81-.54.99-.83,1.58-.88,1.75-.06.21-.19,1.52-.41,3.93.04-.39.07,3.57.08,11.89.02,5.1-.09,8.01-.33,8.75-.73,2.41-1.91,4.49-3.54,6.23-2.21,2.34-5.15,3.52-8.83,3.53-1.47,0-3.11-.13-4.93-.39-1.82-.26-3.21-.68-4.14-1.25-1.06-.66-2.06-1.6-2.99-2.8-.96-1.27-1.59-2.45-1.85-3.59-.52-2.19-.76-6.67-.72-13.47.02-7.96-.1-12.53-.33-13.69-.2-.36-.5-.81-.91-1.31-.49-.58-.8-.99-.95-1.23-.02-.03.02-.06.08-.08-.02-.05,0-.08.03-.11.03-.02.04,0,.06.03l.72.23c1.15-.07,2.75-.07,4.82,0,2.21.08,4.05.08,5.55,0,.84-.03,1.33,0,1.44.08,0,.23-.37.89-1.12,1.99"/>
  <path class="cls-1" d="M281.67,225.31c-.08.26-.12.47-.13.63.25-.02-3.56,0-11.44.08-.07,0-.18,0-.32.03-.14.02-.25.02-.32.02-.27,0-.46-.09-.57-.29.08-.35.36-.5.86-.47.14,0,.35.03.65.08.29.06.47.08.56.08.95.05,2.62.03,5-.08,2.15-.1,3.84-.1,5.08,0-.13-.5-.48-1.17-1.05-1.99-.61-.91-1.01-1.59-1.18-2.04-.43-1.11-.65-2.82-.65-5.16.02-.09-.04-.14-.18-.16-.13-.03-.18-.11-.14-.21.03-.66.08-3.26.16-7.8.06-3.37.14-6.13.25-8.26.23-5.27.36-8,.4-8.16.21-1.49.58-2.58,1.1-3.28.52-.13.71.02.56.47-.03.14-.12.34-.23.61-.15.29-.23.46-.24.49-.52,1.26-.81,3.28-.86,6.06-.29,11.42-.37,18.53-.24,21.35.14,3.23,1.18,5.69,3.12,7.38-.03.14-.1.35-.18.63M276.48,224.69h-6.38c-1.74,0-2.75-.04-3.04-.13-.06-.19.05-.39.32-.6.29-.27.44-.49.46-.65.9-.61,1.45-1.6,1.67-2.96-.02.1.04-1.25.18-4.06.08-1.39.05-6.18-.08-14.32-.02-.58,0-1.58.05-2.99.05-1.56.08-2.73.08-3.51.02-2.9-.27-5.09-.86-6.58-.11-.26-.48-.76-1.12-1.49.19-.24.56-.39,1.1-.42.16,0,.39,0,.7.03.34.02.58.03.7.03h8.06c.54-.03.81-.05.81-.05.25.03.4.15.45.34-.03-.12-.33.25-.86,1.11-.86,1.34-1.26,4.77-1.21,10.3.02,1.22-.03,3.55-.16,6.99-.11,3.15-.13,5.61-.08,7.41.02.39.04,1.3.06,2.75,0,1.07.03,1.91.08,2.54.13,1.78.49,3.23,1.07,4.35.06.11.25.37.6.79.23.29.38.61.43.94-.32.16-1.33.23-3.04.21"/>
  <path class="cls-1" d="M317.28,188.98c-.27.42-.39.6-.38.55-.43,1.01-.67,3.23-.73,6.65,0,.75-.03,1.74-.08,2.96-.09,1.73-.13,2.71-.13,2.95-.14,3.76-.3,8.59-.49,14.52-.03,1.05.13,2.85.49,5.42.14.44.46,1.11.96,2.01.44.84.74,1.49.86,1.94-1.04.24-2.68.32-4.9.21-3.14-.13-4.9-.21-5.29-.21-.09-.4.09-.62.54-.68.14-.03.34-.04.6-.03.32.02.5.03.5.03.75-.03,1.94-.02,3.61.06,1.83.07,3.15.1,3.98.1-1.12-1.29-1.79-3.55-1.99-6.76-.03-.57-.02-1.39.06-2.46.07-1.12.11-1.85.11-2.2-.06-2.53.05-8.51.32-17.92.11-3.8.59-6.34,1.42-7.62.15-.21.37-.29.65-.23.07.23.03.46-.11.7M305.24,208.16c-.04-.09-.08-.22-.11-.37-.03-.16-.06-.28-.08-.34,0,.04-1.28-2.95-3.84-8.93-.96-2.26-1.7-3.94-2.21-5.03-.93-1.97-1.63-3.68-2.1-5.13-.08,0-.08-.04,0-.11.05-.07.11-.11.16-.13.04.02.08.02.13,0h.11c.22.08.46.47.73,1.15.05.16.15.43.29.81.13.34.22.56.27.68.23.53.74,1.59,1.51,3.18.6,1.23,1.08,2.3,1.43,3.19,1.59,4.13,2.87,7.35,3.84,9.69.02.09.08.23.18.42.13.19.21.34.24.44.16.39.14.7-.05.94-.26-.03-.43-.18-.51-.46M296.71,204.36c-.02-.08-.03.18-.03.76-.02.5-.07,1.25-.16,2.23-.09,1.12-.14,1.9-.16,2.35-.2,4-.09,7.31.32,9.93.27,1.76.88,3.21,1.84,4.35.05.09.2.21.45.36.27.16.46.3.56.42.03.03.03.07,0,.13-.03.08-.03.13,0,.18.04.03.09.08.16.13.09.07.15.11.17.13.11.11.13.22.08.34-.08.23-.38.35-.89.39h-1.59c-1.33.05-4.35.07-9.01.07-.1,0-.25.02-.45.03-.22.02-.36.03-.43.03-.33,0-.56-.09-.7-.29.11-.26.42-.41.95-.44.16-.02.4-.02.72,0h.73c.86-.05,2.48-.06,4.84-.03,2.26.02,3.88,0,4.89-.06-.03-.07-.36-.49-.96-1.25-.5-.64-.86-1.04-1.05-1.23-.96-1.83-1.38-4.78-1.27-8.85.18-6.28.29-9.65.32-10.09-.02-.18.07-.25.24-.23.25.08.39.29.44.63M306.55,202.87c.22-4.26.24-7.23.08-8.91-.23-2.58-.66-4.24-1.27-4.98-.93-1.1-1.42-1.56-1.45-1.38.07-.31.91-.47,2.5-.47.44,0,1.06.02,1.83.05.66.02,1.06.03,1.18.03.93-.03,2.14-.03,3.63.03,1.72.09,2.84.13,3.36.13.03.19-.32.76-1.02,1.7-.49,1.07-.81,3.54-.97,7.43-.09,2.55-.15,5.62-.18,9.2-.04,4.4-.08,7.44-.13,9.14-.09,4.35.07,7.01.48,8,.6,1.36.95,1.98,1.05,1.85-.03.03-1.02.07-2.95.08-4.38.03-6.48.03-6.29,0,.03.13-.82-2-2.56-6.36-.93-2.36-2.3-5.5-4.11-9.43-2.12-4.56-3.53-7.67-4.25-9.35-.38,7.54-.51,13.83-.4,18.86.06,2.02.6,3.67,1.61,4.94.04.06.11.13.22.21.13.11.22.18.27.23.2.21.24.43.13.65,0,.19-.1.27-.29.21-.38-.08-.51-.13-.4-.13-.56-.02-1.8-.02-3.74.03-2.01.05-3.42.07-4.25.05-2.35-.03-3.54-.06-3.57-.08,1.36-1.95,2.07-3.05,2.15-3.27.25-.84.3-3.32.16-7.44-.05-1.31-.08-4.29-.08-8.93,0-1.07.05-3.92.16-8.54.05-2.32.06-3.75.03-4.3-.11-1.57-.46-2.73-1.07-3.46-.69-.82-1.02-1.21-1.02-1.15.03-.24.25-.39.65-.42.57-.04.91-.08,1.02-.13-.11-.02,2.04.06,6.45.23l1.99.08c.13.05.6,1.05,1.43,3.01,1.02,2.37,2.58,6.04,4.68,11,2.08,4.96,3.6,8.56,4.57,10.82.21-5.05.35-8.13.4-9.25"/>
  <path class="cls-1" d="M352.05,196.66c-.7.05-1.17.08-1.43.08-.3-.48-.42-.79-.32-.95.15-.02.48-.02.96,0,.55.02.95.02,1.18,0-.09-.13-.73-1.44-1.91-3.9-1.2-2.44-1.82-3.73-1.85-3.88.36-.1.52-.16.52-.16.5.86,1.16,2.09,1.93,3.69.87,1.85,1.5,3.11,1.89,3.78.48.32.63.76.45,1.33-.43-.05-.91-.05-1.43,0M345.49,195.01c-.57-.02-1.54-.02-2.93,0-1.12,0-1.9-.02-2.33-.08-.15.29-.23,1.16-.25,2.57,0,1.55-.09,4.79-.29,9.69-.16,4.07-.22,7.04-.16,8.91.09,3.66.94,6.33,2.56,8,.88.58,1.24,1.12,1.1,1.63-.32.1-1.43.16-3.33.16-.81,0-2.18.02-4.12.05-1.94.02-3.45.03-4.52.03-.86,0-1.37-.08-1.53-.24.13-.33.34-.5.62-.52.07,0,.21,0,.43.03.23.03.42.05.56.05,1.02-.03,2.89-.03,5.6.03,2.4.03,4.13,0,5.19-.03-.08-.24-.27-.51-.6-.78-.45-.39-.7-.62-.78-.71-.99-1.26-1.59-3.18-1.83-5.76-.14-1.58-.14-3.88,0-6.92.03-1.02.07-2.58.08-4.68,0-2.03.03-3.55.08-4.56.13-2.63.11-5.05-.08-7.25.08.03.14,0,.16-.13.02-.13.07-.18.16-.16.58-.11,2.75-.09,6.54.05.11,0,.31,0,.62,0,.27-.02.47-.03.61-.03.45.04.69.23.7.58-.15.13-.9.15-2.27.08M329.06,194.72c-.08,0-.21-.02-.43-.05-.17-.03-.29-.05-.38-.05-2.94,0-5.1.03-6.49.08-.3.67-.78,1.12-1.45,1.39-.68.28-1.36.26-2.04-.06.1-.34.35-.5.76-.47.75.05,1.11.08,1.11.08.41-.96.83-1.51,1.23-1.63.54.07,1.81.07,3.82,0,1.94-.09,3.27-.06,4.01.08.31.06.5.18.56.37-.14.21-.37.3-.7.26M350.14,195.09c-.57-.05-.89-.08-.96-.08-.18-.12-.39-.34-.65-.67-.25-.35-.46-.59-.62-.71-1.33-.16-4.5-.21-9.52-.16-.37,4.86-.54,10.45-.48,16.79.05,4.71.24,8.17.56,10.43.13.87.39,1.68.81,2.41.08.16.23.35.46.58.21.21.34.38.4.52-.08.26-.26.39-.54.37-.08-.02-.19-.04-.35-.08-.18-.04-.3-.06-.38-.06-1.64-.03-3.92,0-6.8.08,0,0-.29.02-.83.05-.52.03-.97.06-1.35.08-1.18.02-1.8-.1-1.88-.37.03.13.41-.24,1.13-1.1.46-.57.75-1.25.86-2.01.09-.61.23-2.86.4-6.75.04-.69.07-7.64.08-20.85-.9-.14-3.31-.19-7.26-.16-1.71.02-2.53.02-2.48,0-.27.07-.53.31-.78.7-.31.5-.5.77-.6.84-.08-.03-.44-.02-1.07.06-.55.07-.94,0-1.16-.22.02-.1.31-.75.89-1.93.36-.77.67-1.42.94-1.94,1.01-1.94,1.7-3.14,2.1-3.59,13.16-.05,21.38-.13,24.66-.23.56-.02,1.07.03,1.54.16.38.7.88,1.66,1.5,2.9.76,1.49,1.28,2.47,1.54,2.94.57,1.08.86,1.69.86,1.85-.25.14-.6.2-1.02.16"/>
  <path class="cls-1" d="M368.05,225.31c-.08.26-.12.47-.13.63.25-.02-3.56,0-11.44.08-.07,0-.18,0-.32.03-.15.02-.25.02-.32.02-.28,0-.46-.09-.57-.29.08-.35.36-.5.86-.47.14,0,.35.03.65.08.29.06.47.08.56.08.95.05,2.62.03,5-.08,2.16-.1,3.84-.1,5.08,0-.13-.5-.48-1.17-1.05-1.99-.61-.91-1-1.59-1.18-2.04-.43-1.11-.65-2.82-.65-5.16.02-.09-.04-.14-.18-.16-.13-.03-.18-.11-.13-.21.02-.66.07-3.26.16-7.8.05-3.37.13-6.13.24-8.26.23-5.27.37-8,.4-8.16.21-1.49.58-2.58,1.1-3.28.52-.13.7.02.56.47-.03.14-.11.34-.23.61-.15.29-.23.46-.24.49-.52,1.26-.81,3.28-.86,6.06-.29,11.42-.38,18.53-.25,21.35.14,3.23,1.18,5.69,3.12,7.38-.03.14-.1.35-.18.63M362.86,224.69h-6.38c-1.74,0-2.75-.04-3.04-.13-.06-.19.05-.39.33-.6.29-.27.44-.49.45-.65.9-.61,1.45-1.6,1.67-2.96-.03.1.04-1.25.18-4.06.08-1.39.05-6.18-.08-14.32-.02-.58,0-1.58.05-2.99.05-1.56.08-2.73.08-3.51.02-2.9-.27-5.09-.86-6.58-.11-.26-.48-.76-1.12-1.49.19-.24.56-.39,1.1-.42.16,0,.39,0,.7.03.34.02.58.03.7.03h8.06c.54-.03.81-.05.81-.05.25.03.4.15.45.34-.04-.12-.32.25-.86,1.11-.86,1.34-1.27,4.77-1.21,10.3.02,1.22-.03,3.55-.16,6.99-.11,3.15-.13,5.61-.08,7.41.02.39.04,1.3.06,2.75,0,1.07.03,1.91.08,2.54.13,1.78.49,3.23,1.07,4.35.06.11.26.37.6.79.23.29.38.61.43.94-.32.16-1.33.23-3.04.21"/>
  <path class="cls-1" d="M402.75,188.98c-.27.42-.39.6-.38.55-.43,1.01-.67,3.23-.73,6.65,0,.75-.03,1.74-.08,2.96-.09,1.73-.13,2.71-.13,2.95-.14,3.76-.3,8.59-.49,14.52-.03,1.05.13,2.85.49,5.42.14.44.46,1.11.96,2.01.44.84.74,1.49.86,1.94-1.04.24-2.68.32-4.89.21-3.14-.13-4.91-.21-5.3-.21-.09-.4.09-.62.54-.68.14-.03.34-.04.6-.03.32.02.5.03.5.03.76-.03,1.95-.02,3.61.06,1.83.07,3.15.1,3.99.1-1.13-1.29-1.8-3.55-2-6.76-.03-.57-.02-1.39.06-2.46.07-1.12.1-1.85.1-2.2-.05-2.53.06-8.51.33-17.92.11-3.8.59-6.34,1.43-7.62.14-.21.36-.29.65-.23.07.23.03.46-.11.7M390.7,208.16c-.03-.09-.08-.22-.11-.37-.03-.16-.07-.28-.08-.34,0,.04-1.28-2.95-3.84-8.93-.96-2.26-1.7-3.94-2.21-5.03-.93-1.97-1.63-3.68-2.1-5.13-.08,0-.08-.04,0-.11.06-.07.11-.11.17-.13.03.02.08.02.13,0h.11c.22.08.46.47.73,1.15.05.16.15.43.29.81.13.34.22.56.27.68.23.53.74,1.59,1.51,3.18.6,1.23,1.08,2.3,1.43,3.19,1.59,4.13,2.87,7.35,3.84,9.69.02.09.08.23.19.42.12.19.2.34.23.44.16.39.14.7-.05.94-.25-.03-.42-.18-.51-.46M382.18,204.36c-.02-.08-.03.18-.03.76-.03.5-.08,1.25-.16,2.23-.1,1.12-.15,1.9-.16,2.35-.2,4-.1,7.31.32,9.93.27,1.76.87,3.21,1.83,4.35.05.09.2.21.45.36.27.16.46.3.57.42.02.03.02.07,0,.13-.04.08-.04.13,0,.18.03.03.09.08.15.13.09.07.15.11.17.13.11.11.13.22.08.34-.08.23-.38.35-.88.39h-1.59c-1.34.05-4.35.07-9,.07-.11,0-.26.02-.46.03-.21.02-.36.03-.43.03-.32,0-.55-.09-.7-.29.11-.26.42-.41.94-.44.16-.02.4-.02.73,0h.72c.86-.05,2.48-.06,4.84-.03,2.27.02,3.88,0,4.89-.06-.03-.07-.36-.49-.96-1.25-.5-.64-.86-1.04-1.05-1.23-.95-1.83-1.38-4.78-1.27-8.85.18-6.28.29-9.65.33-10.09-.02-.18.06-.25.24-.23.24.08.39.29.43.63M392.02,202.87c.22-4.26.24-7.23.08-8.91-.23-2.58-.65-4.24-1.27-4.98-.93-1.1-1.42-1.56-1.45-1.38.07-.31.91-.47,2.5-.47.44,0,1.06.02,1.83.05.66.02,1.06.03,1.18.03.93-.03,2.14-.03,3.63.03,1.72.09,2.84.13,3.36.13.03.19-.32.76-1.02,1.7-.49,1.07-.81,3.54-.97,7.43-.08,2.55-.15,5.62-.18,9.2-.04,4.4-.08,7.44-.13,9.14-.09,4.35.07,7.01.48,8,.6,1.36.95,1.98,1.05,1.85-.03.03-1.02.07-2.95.08-4.37.03-6.48.03-6.29,0,.03.13-.81-2-2.56-6.36-.93-2.36-2.31-5.5-4.11-9.43-2.11-4.56-3.53-7.67-4.25-9.35-.37,7.54-.51,13.83-.4,18.86.06,2.02.6,3.67,1.62,4.94.03.06.11.13.21.21.13.11.22.18.28.23.19.21.23.43.13.65,0,.19-.09.27-.29.21-.37-.08-.51-.13-.4-.13-.56-.02-1.8-.02-3.73.03-2.01.05-3.43.07-4.25.05-2.35-.03-3.54-.06-3.57-.08,1.36-1.95,2.08-3.05,2.15-3.27.25-.84.31-3.32.16-7.44-.05-1.31-.08-4.29-.08-8.93,0-1.07.05-3.92.16-8.54.05-2.32.07-3.75.03-4.3-.11-1.57-.47-2.73-1.07-3.46-.68-.82-1.02-1.21-1.02-1.15.03-.24.25-.39.65-.42.57-.04.91-.08,1.02-.13-.11-.02,2.04.06,6.45.23l1.99.08c.13.05.6,1.05,1.43,3.01,1.02,2.37,2.58,6.04,4.68,11,2.08,4.96,3.6,8.56,4.57,10.82.22-5.05.35-8.13.4-9.25"/>
  <path class="cls-1" d="M359.04,180.35c-.34.1.83-.06,1.45-.03.9.06,1.43.09,1.57.09,1.28.03,2.25-.29,2.89-.95.29-.29.8-.99,1.5-2.11,0,.04-.05-.13-.13-.49-.04-.22.03-.37.23-.46.15-.08.33-.03.52.13.14.13.24.24.3.37.19.47.22,1.16.08,2.08-.2,1.3-.58,2.39-1.13,3.3-.65,1.08-1.87,1.96-3.67,2.63-.62.23-1.41.24-2.37.03.03.02-.48-.08-1.5-.3-.91-.18-1.69-.06-2.45.1"/>
  <path class="cls-1" d="M357.43,184.79c.23,0,.45.03.66.08.22.05.44.08.65.09.04.03.18.06.44.08.22.03.31.05.28.08,2.43.42,4.35.15,5.75-.82,1.62-1.51,2.51-2.96,2.67-4.37.02-.24.13-.51.35-.81-.11.08,0,.13.34.15-.09,1.08-.41,2.13-.94,3.14-1.06,1.59-2.27,2.62-3.63,3.06-1.06.34-1.82.51-2.3.53"/>
  <path class="cls-1" d="M246,269.16c.43-.39.34-.93-.23-1.52l-1.33-1.36-1.36,1.28,1.25,1.27c.6.6,1.18.8,1.66.36l.02-.03ZM243.76,271.91c.44-.4.39-.96-.3-1.68l-1.56-1.59-1.42,1.32,1.61,1.64c.6.61,1.17.77,1.65.33l.02-.02ZM240.85,272.76l-2.93-2.98,6.43-5.99,2.85,2.91c1.26,1.27,1.38,2.66.37,3.61l-.02.02c-.72.68-1.49.68-2.19.47.43.99.44,1.84-.43,2.64l-.02.02c-1.17,1.1-2.68.72-4.07-.7"/>
  <path class="cls-1" d="M252.05,273.98l-2.74,1.47,1.85,1.44.89-2.91ZM249.99,280.64l.62-2.01-2.93-2.3-1.89,1.02-1.55-1.22,8.6-4.46,1.4,1.1-2.66,9.13-1.59-1.25Z"/>
  <path class="cls-1" d="M260.99,280.86c.44-.7.17-1.35-.65-1.84l-1.66-.99-1.33,2.12,1.69,1.02c.81.49,1.54.34,1.93-.29l.02-.03ZM257.89,285.71l-.13-3.34-1.32-.78-1.49,2.37-1.68-1,4.66-7.4,3.47,2.07c1.79,1.07,2.28,2.63,1.33,4.15l-.02.02c-.75,1.19-1.88,1.55-3.06,1.33l.19,3.75-1.95-1.17Z"/>
  <path class="cls-1" d="M273,286.26c.3-.76-.09-1.36-.97-1.69l-1.82-.69-.91,2.33,1.85.7c.89.34,1.59.06,1.85-.62v-.03ZM270.85,291.58l-.76-3.26-1.43-.54-1.02,2.59-1.83-.69,3.21-8.09,3.8,1.43c1.95.73,2.74,2.18,2.07,3.84v.03c-.53,1.31-1.58,1.85-2.78,1.84l.88,3.65-2.14-.8Z"/>
  <polygon class="cls-1" points="275.02 292.95 277.2 284.55 283.71 286.16 283.29 287.8 278.66 286.66 278.23 288.36 282.29 289.36 281.87 291.02 277.8 290.01 277.34 291.77 282.02 292.93 281.6 294.57 275.02 292.95"/>
  <path class="cls-1" d="M287.06,295.52c-1.33-.18-2.62-.81-3.55-1.86l1.33-1.19c.7.75,1.48,1.26,2.48,1.39.8.1,1.32-.13,1.38-.65v-.03c.07-.48-.19-.76-1.62-1.33-1.72-.68-2.79-1.3-2.56-3v-.03c.22-1.57,1.64-2.42,3.45-2.19,1.29.17,2.33.7,3.13,1.53l-1.21,1.29c-.71-.63-1.43-1.06-2.18-1.15-.74-.1-1.17.18-1.23.6v.03c-.08.56.27.8,1.75,1.38,1.72.69,2.64,1.44,2.44,2.95v.03c-.24,1.7-1.71,2.48-3.62,2.23"/>
  <polygon class="cls-1" points="296.69 289.16 296.51 296.07 294.54 296.02 294.74 289.11 292.03 289.04 292.07 287.28 299.44 287.47 299.4 289.23 296.69 289.16"/>
  <path class="cls-1" d="M303.62,289.4l-.95,2.89,2.36-.18-1.41-2.71ZM306.84,295.6l-.97-1.87-3.75.29-.65,2.01-2,.16,3.08-9,1.8-.15,4.52,8.41-2.04.16Z"/>
  <path class="cls-1" d="M314.19,294.53c-2.33.49-4.04-.5-4.59-2.99l-1.06-4.84,1.91-.4,1.05,4.8c.3,1.38,1.17,1.95,2.33,1.7,1.17-.23,1.73-1.07,1.43-2.42l-1.06-4.86,1.91-.39,1.04,4.78c.57,2.58-.64,4.14-2.98,4.62"/>
  <path class="cls-1" d="M323.74,285.74c-.28-.77-.97-.98-1.87-.67l-1.84.63.85,2.35,1.87-.64c.9-.31,1.25-.96,1-1.64v-.03ZM325.64,291.14l-2.74-2.01-1.45.5.94,2.62-1.85.64-2.95-8.18,3.84-1.32c1.97-.68,3.53-.07,4.14,1.62v.02c.49,1.33.05,2.41-.87,3.15l3.1,2.22-2.16.74Z"/>
  <path class="cls-1" d="M330.31,282.1l.24,3.03,2.11-1.04-2.36-1.99ZM335.69,286.66l-1.63-1.38-3.36,1.64.18,2.11-1.79.87-.63-9.48,1.61-.79,7.45,6.13-1.83.9Z"/>
  <polygon class="cls-1" points="344.37 281.28 337.61 279.11 340.82 283.66 339.23 284.73 334.18 277.58 335.66 276.58 342.22 278.68 339.1 274.28 340.7 273.21 345.75 280.35 344.37 281.28"/>
  <polygon class="cls-1" points="346.23 270.86 350.93 276.04 349.46 277.31 344.76 272.13 342.73 273.88 341.53 272.56 347.06 267.8 348.26 269.12 346.23 270.86"/>
  <polygon class="cls-1" points="354.45 272.81 347.84 267 352.33 262.14 353.62 263.29 350.43 266.73 351.77 267.91 354.58 264.87 355.88 266 353.07 269.04 354.46 270.27 357.69 266.77 358.99 267.9 354.45 272.81"/>
  <path class="cls-1" d="M231.91,160.01l-4.64-4.16,2.14-2.27,4.59,4.12c1.19,1.07,2.32.99,3.16.09.85-.9.86-1.97-.3-3l-4.65-4.17,2.14-2.27,4.58,4.1c2.67,2.39,2.43,4.93.28,7.22-2.16,2.28-4.72,2.65-7.3.34"/>
  <polygon class="cls-1" points="237.49 145.61 239.9 143.69 245.25 150.13 249.48 146.79 251.2 148.86 244.56 154.1 237.49 145.61"/>
  <polygon class="cls-1" points="249.36 140.18 246.51 141.93 245.06 139.69 253.39 134.57 254.84 136.82 252 138.56 256.54 145.56 253.9 147.18 249.36 140.18"/>
  <path class="cls-1" d="M263.59,135.64c.97-.41,1.32-1.11.99-1.84v-.03c-.37-.79-1.13-.94-2.09-.53l-1.86.8,1.08,2.4,1.88-.81ZM256.7,132.86l4.87-2.08c1.57-.67,2.84-.74,3.83-.34.86.32,1.52.95,1.96,1.94v.03c.7,1.53.33,2.9-.71,3.98l4.03,2.44-3.29,1.4-3.44-2.14h-.03s-1.22.53-1.22.53l1.37,3.04-2.85,1.22-4.51-10.01Z"/>
  <path class="cls-1" d="M277.63,132.48l-2.01-2.7-.42,3.32,2.43-.62ZM273.25,126.67l2.9-.74,7.47,9.49-3.22.81-1.3-1.69-4.19,1.07-.28,2.08-3.16.8,1.78-11.82Z"/>
  <polygon class="cls-1" points="284.56 124.25 287.84 124 290.84 128.01 293.17 123.6 296.46 123.34 297.34 134.24 294.25 134.48 293.75 128.22 291.23 132.7 291.16 132.7 287.97 128.69 288.48 134.92 285.44 135.15 284.56 124.25"/>
  <path class="cls-1" d="M307.1,130.65l-.94-3.21-1.57,2.98,2.51.23ZM305.05,123.73l2.98.29,3.66,11.4-3.32-.31-.61-2.02-4.31-.41-.99,1.86-3.26-.31,5.86-10.5Z"/>
  <path class="cls-1" d="M319.97,131.66c1.02.27,1.75-.07,1.95-.84v-.03c.23-.83-.27-1.42-1.28-1.68l-1.96-.51-.69,2.54,1.98.51ZM316.37,125.3l5.13,1.33c1.66.43,2.69,1.15,3.22,2.06.47.76.58,1.67.29,2.71v.03c-.44,1.61-1.63,2.46-3.13,2.67l1.59,4.35-3.48-.89-1.31-3.77h-.03s-1.29-.34-1.29-.34l-.87,3.21-3-.78,2.88-10.56Z"/>
  <polygon class="cls-1" points="329.4 129.08 332.31 130.19 328.2 140.36 325.28 139.26 329.4 129.08"/>
  <polygon class="cls-1" points="336.14 131.69 338.7 133.03 339.94 140.25 342.76 135.17 345.46 136.59 340.13 146.21 337.73 144.95 336.45 137.45 333.51 142.73 330.81 141.3 336.14 131.69"/>
  <path class="cls-1" d="M352.59,148.54l.03-.02c1-1.24.96-3.03-.39-4.06-1.33-1.03-3.08-.66-4.09.58l-.02.02c-1.01,1.24-.96,3.03.37,4.05,1.35,1.04,3.1.67,4.1-.57M345.6,143.16l.03-.03c1.99-2.47,5.66-2.89,8.37-.81,2.72,2.09,3.13,5.61,1.13,8.08l-.03.03c-2,2.47-5.66,2.89-8.37.81-2.72-2.1-3.13-5.62-1.13-8.08"/>
  <path class="cls-1" d="M353.84,154.62l2.7-.13c.1,1.38.6,2.58,1.48,3.5.57.6,1.08.72,1.43.4l.03-.02c.34-.3.28-.74-.5-2.06-1.23-2.07-1.98-3.83-.29-5.36l.03-.03c1.53-1.38,3.76-1.19,5.59.73,1.3,1.37,1.94,2.78,2.05,4.3l-2.68.34c-.17-1.21-.65-2.27-1.32-2.98-.51-.54-1-.59-1.29-.32l-.03.02c-.38.34-.28.76.52,2.11,1.34,2.22,1.82,3.92.27,5.31l-.02.02c-1.69,1.52-3.92,1.12-5.77-.82-1.35-1.42-2.18-3.19-2.21-4.99"/>
</svg>