<?xml version="1.0" encoding="UTF-8"?>
<svg id="Capa_1" data-name="Capa 1" xmlns="http://www.w3.org/2000/svg" version="1.1" viewBox="0 0 595.28 419.53">
  <defs>
    <style>
      .cls-1 {
        fill: #1d1d1b;
        stroke-width: 0px;
      }
    </style>
  </defs>
  <path class="cls-1" d="M184.8,174.25c0,.41.21.62.64.62h.28v.27h-7.47v-.27h.28c.43,0,.64-.21.64-.62v-25.36c0-.33-.18-.5-.52-.5h-5.87c-.35,0-.52.17-.52.5v1.7h-.28v-2.47h20.01v2.47h-.28v-1.7c0-.33-.17-.5-.52-.5h-5.87c-.35,0-.52.17-.52.5v25.36Z"/>
  <path class="cls-1" d="M201.47,161.55c-.35,0-.52.17-.52.5v12.2c0,.41.21.62.64.62h.28v.27h-7.47v-.27h.28c.43,0,.64-.2.64-.62v-25.25c0-.41-.21-.62-.64-.62h-.28v-.27h7.47v.27h-.28c-.43,0-.64.21-.64.62v11.77c0,.33.17.5.52.5h8.36c.37,0,.56-.17.56-.5v-11.77c0-.41-.22-.62-.64-.62h-.32v-.27h7.51v.27h-.28c-.43,0-.64.21-.64.62v25.25c0,.41.21.62.64.62h.28v.27h-7.51v-.27h.32c.43,0,.64-.2.64-.62v-12.2c0-.33-.18-.5-.52-.5h-8.4Z"/>
  <path class="cls-1" d="M225.9,160.78c0,.33.17.5.52.5h5.02c.35,0,.52-.17.52-.5v-1.7h.28v4.67h-.28v-1.7c0-.33-.17-.5-.52-.5h-5.02c-.35,0-.52.17-.52.5v12.32c0,.33.17.5.52.5h7.83c.35,0,.52-.17.52-.5v-1.7h.28v2.47h-15.71v-.27h.28c.43,0,.64-.2.64-.62v-25.25c0-.41-.21-.62-.64-.62h-.28v-.27h15.71v2.47h-.28v-1.7c0-.33-.17-.5-.52-.5h-7.83c-.35,0-.52.17-.52.5v11.89Z"/>
  <path class="cls-1" d="M192.88,183.73v.4h-.4c-.6,0-.9.3-.9.9v28.91c0,1.17-.25,2.3-.76,3.39-.51,1.09-1.21,2.07-2.12,2.94-.9.87-1.95,1.57-3.13,2.12-1.19.55-2.46.84-3.81.88-2.03.08-3.88-.24-5.53-.96-1.66-.71-2.86-1.6-3.61-2.65v-.06c-.42-.64-.62-1.35-.62-2.15,0-1.09.39-2.02,1.16-2.8.77-.77,1.7-1.16,2.8-1.16s2.02.39,2.8,1.16c.77.77,1.16,1.7,1.16,2.8s-.39,2.02-1.16,2.8c-.77.77-1.7,1.16-2.8,1.16-.34,0-.58-.02-.73-.06.79.41,1.64.75,2.54,1.02.9.26,1.64.4,2.2.4.41,0,.89-.1,1.44-.31.54-.21.97-.59,1.27-1.16.45-.83.73-1.85.85-3.08.11-1.22.17-2.72.17-4.49v-28.69c0-.6-.3-.9-.9-.9h-.4v-.4h10.5Z"/>
  <path class="cls-1" d="M211.97,222.87c1.92,0,3.74-.37,5.45-1.1,1.71-.73,3.2-1.73,4.46-2.99,1.26-1.26,2.26-2.75,2.99-4.46.73-1.71,1.1-3.53,1.1-5.45v-23.83c0-.6-.3-.9-.9-.9h-.4v-.39h2.99v.39h-.4c-.6,0-.9.3-.9.9v23.83c0,1.99-.38,3.87-1.13,5.62-.75,1.75-1.78,3.28-3.08,4.57-1.3,1.3-2.82,2.32-4.57,3.08-1.75.75-3.62,1.13-5.62,1.13s-3.87-.38-5.62-1.13c-1.75-.75-3.27-1.78-4.57-3.08-1.3-1.3-2.32-2.82-3.08-4.57-.75-1.75-1.13-3.62-1.13-5.62v-23.83c0-.6-.3-.9-.9-.9h-.4v-.39h10.5v.39h-.4c-.6,0-.9.3-.9.9v23.38c0,2.67.03,5,.09,6.97.06,1.98.35,3.53.87,4.66.26.6.62,1.08,1.07,1.44.45.36.93.64,1.44.85.51.21,1.03.35,1.55.42.53.08,1.02.11,1.47.11"/>
  <path class="cls-1" d="M254.61,212.53c.11.3.36.45.73.45.6,0,.9-.3.9-.9v-27.05c0-.6-.3-.9-.9-.9h-.4v-.4h2.99v.4h-.39c-.6,0-.9.3-.9.9v38.23h-4.97l-17.28-35.92c-.15-.26-.4-.39-.73-.39-.26,0-.48.08-.65.25-.17.17-.25.37-.25.59v34.17c0,.6.3.9.9.9h.4v.4h-2.99v-.4h.4c.6,0,.9-.3.9-.9v-36.93c0-.6-.3-.9-.9-.9h-.4v-.4h10.39l13.16,28.8Z"/>
  <path class="cls-1" d="M298.6,207.28v14.85c0,.49.24.73.73.73h.4v.4h-10.11v-.4h.34c.49,0,.73-.24.73-.73v-1.07c0-.11-.06-.17-.17-.17,0,0-.08.02-.11.06-1.39.75-2.87,1.33-4.43,1.72-1.56.4-3.19.59-4.89.59h-.06c-2.71,0-5.27-.52-7.68-1.55-2.41-1.04-4.5-2.45-6.27-4.24-1.77-1.79-3.17-3.89-4.21-6.3-1.04-2.41-1.55-4.97-1.55-7.68s.52-5.27,1.55-7.68c1.04-2.41,2.44-4.5,4.21-6.27,1.77-1.77,3.86-3.18,6.27-4.24,2.41-1.05,4.97-1.58,7.68-1.58h.06c2.75,0,5.33.53,7.74,1.58,2.41,1.06,4.52,2.49,6.33,4.29.75.75,1.13,1.68,1.13,2.77s-.39,2.02-1.16,2.8c-.77.77-1.7,1.16-2.8,1.16s-2.02-.39-2.8-1.16c-.77-.77-1.16-1.7-1.16-2.8s.39-2.02,1.16-2.8c.77-.77,1.7-1.16,2.8-1.16.11,0,.23,0,.37.03.13.02.25.03.37.03.08,0,.11-.02.11-.06s-.02-.06-.06-.06c-1.66-1.32-3.5-2.35-5.53-3.11-2.03-.75-4.2-1.13-6.5-1.13h-.28c-2.18,0-3.97.3-5.36.9-1.39.6-2.3,1.13-2.71,1.58-.57.6-1,1.38-1.3,2.34-.3.96-.52,2.07-.65,3.33-.13,1.26-.21,2.63-.23,4.1-.02,1.47-.03,3.01-.03,4.63v4.97c0,1.62,0,3.17.03,4.66.02,1.49.09,2.85.23,4.09.13,1.24.35,2.35.65,3.33.3.98.73,1.75,1.3,2.32.41.45,1.32.98,2.71,1.58,1.39.6,3.18.9,5.36.9h.34c3.28,0,6.27-.75,8.98-2.26.38-.19.56-.51.56-.96v-12.37c0-.53-.25-.79-.73-.79h-.34v-.4h10.11v.4h-.4c-.49,0-.73.26-.73.79"/>
  <path class="cls-1" d="M312.32,204.74v17.39c0,.49.24.73.73.73h11.01c.49,0,.73-.24.73-.73v-2.48h.4v3.61h-22.08v-.4h.4c.6,0,.9-.3.9-.9v-36.93c0-.6-.3-.9-.9-.9h-.4v-.39h10.5v.39h-.4c-.6,0-.9.3-.9.9v19.71Z"/>
  <path class="cls-1" d="M337.79,202.26c0,.49.24.73.73.73h7.06c.49,0,.73-.24.73-.73v-2.48h.4v6.83h-.4v-2.48c0-.49-.25-.73-.73-.73h-7.06c-.49,0-.73.25-.73.73v18.01c0,.49.24.73.73.73h11.01c.49,0,.73-.24.73-.73v-2.48h.4v3.61h-22.08v-.4h.4c.6,0,.9-.3.9-.9v-36.93c0-.6-.3-.9-.9-.9h-.4v-.4h22.08v3.61h-.4v-2.48c0-.49-.25-.73-.73-.73h-11.01c-.49,0-.73.25-.73.73v17.39Z"/>
  <path class="cls-1" d="M192.88,231.87v.4h-.4c-.6,0-.9.3-.9.9v28.91c0,1.17-.25,2.3-.76,3.39-.51,1.09-1.21,2.07-2.12,2.94-.9.87-1.95,1.57-3.13,2.12-1.19.55-2.46.84-3.81.88-2.03.08-3.88-.24-5.53-.96-1.66-.71-2.86-1.6-3.61-2.65v-.06c-.42-.64-.62-1.35-.62-2.15,0-1.09.39-2.02,1.16-2.8.77-.77,1.7-1.16,2.8-1.16s2.02.39,2.8,1.16c.77.77,1.16,1.7,1.16,2.8s-.39,2.02-1.16,2.8c-.77.77-1.7,1.16-2.8,1.16-.34,0-.58-.02-.73-.06.79.41,1.64.75,2.54,1.02.9.26,1.64.4,2.2.4.41,0,.89-.1,1.44-.31.54-.21.97-.59,1.27-1.16.45-.83.74-1.85.85-3.08.11-1.22.17-2.72.17-4.49v-28.69c0-.6-.3-.9-.9-.9h-.4v-.4h10.5Z"/>
  <path class="cls-1" d="M199.94,256.43h8.64c.08,0,.17-.03.28-.08.11-.06.13-.18.06-.37l-4.46-12.03-4.52,12.48ZM224.11,271v.4h-11.18v-.4h.96c.07,0,.17-.04.28-.11.11-.08.13-.21.06-.39l-4.91-13.33c-.08-.23-.25-.34-.51-.34h-9.04l-5.03,13.67c-.08.19-.07.32.03.39.09.08.2.11.31.11h.96v.4h-3.16v-.4h.62c.45,0,.73-.19.85-.56l14.12-38.57,14.12,38.57c.11.38.4.56.85.56h.68Z"/>
  <path class="cls-1" d="M250.71,271c.49,0,.73-.24.73-.73v-2.49h.4v3.61h-24.34v-.4l17.22-37.84c.11-.23.13-.43.06-.62-.08-.19-.26-.28-.56-.28h-13.61c-.49,0-.73.25-.73.73v2.49h-.4v-3.61h24.34v.39l-17.22,37.89c-.11.23-.13.42-.06.59.08.17.24.25.51.25h13.67Z"/>
  <path class="cls-1" d="M280.41,271c.49,0,.73-.24.73-.73v-2.49h.4v3.61h-24.34v-.4l17.22-37.84c.11-.23.13-.43.06-.62-.08-.19-.26-.28-.56-.28h-13.61c-.49,0-.73.25-.73.73v2.49h-.4v-3.61h24.34v.39l-17.22,37.89c-.11.23-.13.42-.06.59.08.17.24.25.51.25h13.67Z"/>
  <path class="cls-1" d="M316.78,232.26h-.23c-2.18,0-3.97.3-5.36.9-1.39.6-2.3,1.13-2.71,1.58-.57.6-1,1.38-1.3,2.34-.3.96-.52,2.07-.65,3.33-.13,1.26-.21,2.63-.23,4.09-.02,1.47-.03,3.01-.03,4.63v4.97c0,1.62,0,3.16.03,4.63.02,1.47.09,2.83.23,4.09.13,1.26.35,2.37.65,3.33.3.96.73,1.74,1.3,2.34.41.45,1.32.98,2.71,1.58,1.39.6,3.18.9,5.36.9h.28c2.3,0,4.46-.38,6.49-1.13,2.03-.75,3.88-1.79,5.53-3.11.07-.08.06-.11-.06-.11-.11.04-.23.06-.37.06h-.37c-1.09,0-2.02-.39-2.8-1.16-.77-.77-1.16-1.7-1.16-2.8s.39-2.02,1.16-2.8c.77-.77,1.7-1.16,2.8-1.16s2.02.39,2.8,1.16c.77.77,1.16,1.7,1.16,2.8s-.38,2.01-1.13,2.77c-1.81,1.81-3.92,3.24-6.33,4.29-2.41,1.05-4.99,1.58-7.74,1.58h-.06c-2.71,0-5.27-.52-7.68-1.55-2.41-1.04-4.5-2.45-6.27-4.24-1.77-1.79-3.17-3.89-4.21-6.3-1.04-2.41-1.55-4.97-1.55-7.68s.52-5.27,1.55-7.68c1.04-2.41,2.44-4.5,4.21-6.27,1.77-1.77,3.86-3.18,6.27-4.24,2.41-1.05,4.97-1.58,7.68-1.58h.06c2.22,0,4.32.35,6.3,1.05,1.98.7,3.79,1.65,5.45,2.85.15.11.36.17.62.17s.49-.08.68-.25c.19-.17.28-.4.28-.71v-.96h.4v8.47h-.4v-3.44c0-1.05-.4-1.88-1.19-2.49-1.66-1.32-3.51-2.36-5.56-3.13-2.05-.77-4.23-1.16-6.52-1.16h-.11Z"/>
  <path class="cls-1" d="M344.62,252.88v17.39c0,.49.24.73.73.73h11.01c.49,0,.73-.24.73-.73v-2.48h.4v3.61h-22.08v-.4h.4c.6,0,.9-.3.9-.9v-36.93c0-.6-.3-.9-.9-.9h-.4v-.39h10.5v.39h-.4c-.6,0-.9.3-.9.9v19.71Z"/>
  <path class="cls-1" d="M374.89,271c1.92,0,3.74-.37,5.45-1.1,1.71-.73,3.2-1.73,4.46-2.99,1.26-1.26,2.26-2.75,2.99-4.46.73-1.71,1.1-3.53,1.1-5.45v-23.83c0-.6-.3-.9-.9-.9h-.4v-.39h2.99v.39h-.4c-.6,0-.9.3-.9.9v23.83c0,1.99-.38,3.87-1.13,5.62-.75,1.75-1.78,3.28-3.08,4.57-1.3,1.3-2.82,2.32-4.57,3.08-1.75.75-3.62,1.13-5.62,1.13s-3.87-.38-5.62-1.13c-1.75-.75-3.27-1.78-4.57-3.08-1.3-1.3-2.32-2.82-3.08-4.57-.75-1.75-1.13-3.62-1.13-5.62v-23.83c0-.6-.3-.9-.9-.9h-.4v-.39h10.5v.39h-.4c-.6,0-.9.3-.9.9v23.38c0,2.67.03,5,.08,6.97.06,1.98.35,3.53.88,4.66.26.6.62,1.08,1.07,1.44.45.36.93.64,1.44.85.51.21,1.03.35,1.55.42.53.08,1.02.11,1.47.11"/>
  <path class="cls-1" d="M414.09,259.71c0-3.16-.47-5.41-1.41-6.75-.94-1.34-2.24-2.01-3.9-2.01h-5.82v19.31c0,.49.26.73.79.73h5.03c1.66,0,2.96-.67,3.9-2.01.94-1.34,1.41-3.59,1.41-6.75v-2.54ZM412.96,240.23c0-2.9-.42-4.95-1.27-6.16-.85-1.2-2.02-1.81-3.53-1.81h-4.4c-.53,0-.79.25-.79.73v17.56h5.19c1.51,0,2.68-.6,3.53-1.81.85-1.2,1.27-3.26,1.27-6.16v-2.37ZM415.27,249.49c1.14.34,2.2.86,3.19,1.55.98.7,1.84,1.51,2.56,2.43.72.92,1.28,1.96,1.68,3.11.4,1.15.6,2.36.6,3.64,0,1.54-.29,2.99-.88,4.35-.59,1.35-1.39,2.54-2.41,3.56-1.02,1.02-2.21,1.82-3.56,2.4-1.36.58-2.81.88-4.36.88h-18.11v-.4h.34c.49,0,.73-.24.73-.73v-37.27c0-.49-.25-.73-.73-.73h-.34v-.4h16.21c2.64,0,4.89.94,6.78,2.82.9.87,1.59,1.88,2.06,3.05.47,1.17.71,2.39.71,3.67s-.24,2.5-.71,3.67c-.47,1.17-1.16,2.18-2.06,3.05-.53.56-1.09,1.02-1.69,1.36"/>
</svg>